<svg width="25" height="25" fill="none" xmlns="http://www.w3.org/2000/svg"><path d="M12.5 2.259h5.12c1.205 0 1.808.301 2.26.452.602.3 1.053.452 1.505.904.452.451.754.903.904 1.506.15.451.301 1.054.452 2.259v10.24c0 1.206-.301 1.808-.452 2.26-.301.602-.452 1.054-.903 1.505-.452.452-.904.754-1.507.904-.452.15-1.054.301-2.258.452H7.379c-1.204 0-1.807-.301-2.258-.452-.603-.3-1.054-.452-1.506-.904-.452-.451-.754-.903-.904-1.505-.15-.452-.301-1.054-.452-2.26V7.38c0-1.205.301-1.808.452-2.26.301-.602.452-1.054.903-1.506.452-.451.904-.752 1.507-.903.451-.15 1.054-.301 2.258-.452zM12.5 0H7.38C6.024 0 5.12.301 4.367.602a6.572 6.572 0 0 0-2.26 1.507C1.355 2.86 1.054 3.464.603 4.367.3 5.12.15 6.024 0 7.38v10.24c0 1.356.301 2.26.602 3.013a6.573 6.573 0 0 0 1.506 2.259c.753.752 1.356 1.054 2.26 1.506.753.301 1.657.451 3.011.602h10.242c1.355 0 2.258-.3 3.011-.602a6.575 6.575 0 0 0 2.26-1.506c.753-.753 1.054-1.356 1.506-2.26.301-.752.452-1.656.602-3.011V7.379c0-1.355-.301-2.258-.602-3.012a6.578 6.578 0 0 0-1.506-2.259c-.753-.752-1.356-1.054-2.26-1.506-.753-.3-1.657-.451-3.011-.602z" fill="#FFFCFF" style="fill:#000;stroke-width:.48732"/><path d="M12.5 6.024A6.428 6.428 0 0 0 6.025 12.5a6.428 6.428 0 0 0 6.475 6.476 6.428 6.428 0 0 0 6.475-6.476A6.428 6.428 0 0 0 12.5 6.024zm0 10.693c-2.259 0-4.217-1.807-4.217-4.217 0-2.259 1.807-4.217 4.217-4.217 2.259 0 4.217 1.807 4.217 4.217 0 2.259-1.958 4.217-4.217 4.217zm6.626-9.337a1.506 1.506 0 1 0 0-3.012 1.506 1.506 0 0 0 0 3.012z" fill="#FFFCFF" style="fill:#000;stroke-width:.48732"/></svg>