<svg width="25" height="28.261" fill="none" xmlns="http://www.w3.org/2000/svg"><path d="M24.999 6.862a6.968 6.968 0 0 1-2.648-.523 6.926 6.926 0 0 1-2.246-1.487 6.858 6.858 0 0 1-1.5-2.226A6.811 6.811 0 0 1 18.077 0h-4.944v19.197a4.145 4.145 0 0 1-.797 2.438 4.203 4.203 0 0 1-2.084 1.515 4.239 4.239 0 0 1-2.584.021 4.204 4.204 0 0 1-2.109-1.482 4.147 4.147 0 0 1-.835-2.425 4.144 4.144 0 0 1 .752-2.451 4.2 4.2 0 0 1 2.057-1.552 4.239 4.239 0 0 1 2.583-.067v-4.766a8.99 8.99 0 0 0-5.248.888 8.889 8.889 0 0 0-3.805 3.692 8.784 8.784 0 0 0-1.007 5.183 8.812 8.812 0 0 0 2.149 4.83 8.936 8.936 0 0 0 4.54 2.757c1.76.439 3.615.336 5.315-.297a8.913 8.913 0 0 0 4.199-3.245 8.796 8.796 0 0 0 1.588-5.038l.143-9.704A11.88 11.88 0 0 0 25 11.764V6.862z" fill="#fff" style="fill:#000;stroke-width:.54346"/></svg>